<?xml version="1.0" encoding="utf-8"?>
<!-- Generator: Adobe Illustrator 24.1.0, SVG Export Plug-In . SVG Version: 6.00 Build 0)  -->
<svg version="1.1" id="Ebene_1" xmlns="http://www.w3.org/2000/svg" xmlns:xlink="http://www.w3.org/1999/xlink" x="0px" y="0px"
	 viewBox="0 0 619.1 113.5" style="enable-background:new 0 0 619.1 113.5;" xml:space="preserve">
<style type="text/css">
	.st0{font-family:'AlteHaasGrotesk_Bold';}
	.st1{font-size:66.32px;}
</style>
<g>
	<g id="Ebene_1-2">
		<path d="M95.4,18L95.4,18l-0.1,0.1l0,0L95.4,18z"/>
		<path d="M95.2,18.2l-0.4,0.4L95.2,18.2z"/>
		<path d="M17.6,95.4L17.6,95.4C13.5,91.3,9.9,86.7,7,81.7c0,0.3-0.1,0.7-0.1,1C7,84.2,7.4,85.7,8,87c1.8,3.9,4.3,7.5,7.4,10.5l0,0
			l0.1,0.1c2.4,2.4,5.1,4.5,8,6.2c2.6,1.5,5.2,2.4,7.5,2.2l0,0c-4.8-2.9-9.3-6.3-13.3-10.3L17.6,95.4"/>
		<path d="M57.3,106h0.2c0-0.1,0.1-0.1,0.1-0.2S57.4,105.9,57.3,106"/>
		<path d="M47.5,109c-3.5-1.6-6.9-3.6-10.2-5.7c-0.7-0.2-1.5-0.5-2.2-0.8c-5-2.3-9.5-5.4-13.4-9.2c-0.3-0.3-0.6-0.6-1-0.9L20.5,92
			c-4.7-4.6-8.4-10.3-10.6-16.5c-3-4.5-5.4-9.2-7.3-14.2c-0.3,0.9-0.5,1.9-0.6,2.8c-0.2,3,0.2,6,1.1,8.8c1,3.1,2.3,6,3.9,8.8
			c2.9,5,6.5,9.6,10.6,13.7l0,0l0.1,0.1c4,4,8.4,7.5,13.3,10.4c1.3,0.8,2.6,1.5,3.9,2.1c5.7,2.7,11.2,3.9,15.7,2.9l0,0
			c0.3-0.1,0.6-0.2,0.9-0.3C50.2,110.1,48.9,109.6,47.5,109"/>
		<path d="M72.1,102.1c-0.1,0.2-0.2,0.3-0.4,0.5c-1.5,1.5-3.3,2.5-5.3,3.1c-2.9,0.7-5.9,0.9-8.8,0.4h-0.2c-3.4-0.5-6.7-1.5-9.8-2.8
			c-8.1-3.6-15.5-8.7-21.7-15.1c-0.1-0.1-0.2-0.2-0.3-0.3l-0.1-0.1C16.2,78.4,10.2,68,8,59.1c-0.9-3.4-1.1-6.9-0.7-10.4
			c0.4-2.7,1.6-5.3,3.5-7.2c0.1-0.1,0.3-0.2,0.5-0.4c-0.8-2.9-1.3-6-1.5-9c-1.9,0.7-3.7,1.9-5.1,3.3c-2.6,2.7-4.2,6.2-4.6,10
			c-0.4,4.3,0.1,8.6,1.3,12.7c0.3,1,0.7,2.1,1.1,3.2c1.9,5,4.3,9.8,7.2,14.2c3.5,5.3,7.5,10.3,12,14.9l0.5,0.5
			c0.2,0.3,0.5,0.5,0.8,0.8c4.4,4.3,9.1,8.2,14.2,11.6c3.2,2.2,6.7,4.1,10.2,5.8c1.4,0.6,2.7,1.2,4,1.7c6.8,2.5,13.3,3.4,18.7,2.1
			l0,0c2.8-0.6,5.4-2,7.4-4.1c1.4-1.5,2.6-3.2,3.3-5.1C78,103.4,74.9,102.9,72.1,102.1"/>
		<path d="M103.4,81.3c-0.7,0.3-1.5,0.5-2.2,0.7l0,0c-1.5,0.3-3.1,0.5-4.6,0.6c-0.3,3.7-1.8,7.1-4.4,9.8c-1.8,1.8-4.1,3.1-6.6,3.7
			c-5.8,1.7-13.7,0.7-22.1-2.9c-8.6-3.8-16.5-9.1-23.3-15.6c-0.8-0.7-1.6-1.5-2.4-2.3c-0.4-0.4-0.8-0.8-1.2-1.3
			c-9.9-10.3-16.4-21.8-18.9-31.8c-1.1-4.1-1.4-8.3-0.9-12.5c0.4-3.3,1.9-6.4,4.3-8.9c1.8-1.8,4.1-3.1,6.6-3.7
			c1.1-0.3,2.1-0.5,3.2-0.6c0-0.7,0-1.4,0.1-2.1c0.2-1.6,0.6-3.2,1.2-4.8c-2.7-0.2-5.5,0-8.2,0.7c-3.3,0.8-6.3,2.4-8.7,4.8
			c-3,3.1-4.9,7.2-5.3,11.5c-0.2,1.7-0.2,3.5-0.1,5.2c0.2,3,0.7,6.1,1.5,9c0,0.2,0.1,0.4,0.1,0.5c3.3,11.8,11.4,25.1,23.2,37
			c9.1,9.2,19.1,16.1,28.6,20.3c2.9,1.3,5.8,2.3,8.8,3.2c2.9,0.8,6,1.3,9,1.5c2.7,0.2,5.5,0,8.2-0.7l0,0c3.3-0.8,6.3-2.4,8.7-4.8
			C102.1,94,103.7,88,103.4,81.3"/>
		<path d="M111.8,55.3c-0.3-1-0.6-2-1-3c-0.5,1.3-1.3,2.4-2.2,3.4c-0.8,0.8-1.7,1.4-2.7,1.9c0.3,2.3,0.3,4.7,0,7
			c-0.4,2.7-1.6,5.3-3.5,7.3c-1.5,1.5-3.3,2.5-5.4,3.1c-4.8,1.4-11.5,0.6-18.8-2.5c-7.6-3.4-14.5-8.1-20.4-13.9
			c-0.5-0.5-1-1-1.5-1.5c-0.3-0.3-0.7-0.7-1-1.1C46.7,47,41,37,38.9,28.5c-0.9-3.4-1.2-7-0.7-10.5c0.4-2.7,1.6-5.3,3.5-7.3
			c1.5-1.5,3.3-2.5,5.4-3c2.9-0.7,6-0.9,9-0.3c0.5-1,1.1-1.9,1.8-2.6c1-1,2.2-1.7,3.4-2.2c-6.7-2.5-13-3.3-18.3-2
			c-2.8,0.6-5.4,2-7.5,4.1c-1.5,1.5-2.6,3.2-3.4,5.2c-0.6,1.5-1,3.1-1.2,4.8c-0.1,0.7-0.1,1.4-0.1,2.1c-0.1,3.6,0.4,7.2,1.5,10.7
			c3,10.4,10.2,22.2,20.8,32.8c7.3,7.5,15.8,13.6,25.2,18.1c6.5,3,12.7,4.5,18.2,4.3c1.5,0,3.1-0.2,4.6-0.6l0,0
			c0.8-0.2,1.5-0.4,2.2-0.7c2-0.7,3.7-1.9,5.2-3.3c2.6-2.7,4.2-6.2,4.6-10C113.5,63.7,113.1,59.4,111.8,55.3"/>
		<path d="M110.6,39.9c-1.4-4.3-3.4-8.3-6-12c0.4,1,0.7,2.1,0.8,3.2c0.2,1.2-0.2,2.4-1,3.3c-0.4,0.4-0.9,0.6-1.4,0.8
			c0.6,1.3,1,2.6,1.4,4c0.6,2.1,0.8,4.3,0.5,6.5c-0.2,1.6-0.9,3.1-2,4.3c-0.9,0.9-2,1.5-3.2,1.8c-2.9,0.8-7.2,0.3-11.8-1.7
			c-5.4-2.5-10.2-5.9-14.4-10.1c-6-6-10-12.9-11.5-18.6c-0.6-2.1-0.8-4.4-0.5-6.6c0.2-1.6,0.9-3.1,2-4.3c0.9-0.9,2-1.5,3.1-1.8
			c2.8-0.8,7-0.3,11.5,1.6c0.2-0.5,0.5-1,0.9-1.4c0.7-0.6,1.5-1,2.5-1c1.5,0,2.9,0.3,4.2,0.9c-2.2-1.5-4.5-2.8-6.9-4
			C73,2.2,67.6,1,63,2c-0.6,0.1-1.2,0.3-1.8,0.6c-1.3,0.5-2.5,1.2-3.4,2.2C57,5.6,56.4,6.5,56,7.4c-0.7,1.4-1.1,2.8-1.2,4.4
			c-0.2,3,0.2,6,1.1,8.8c2.2,7,7.2,14.9,14.3,22.1l0.3,0.3l0.8,0.7c4.8,4.8,10.4,8.8,16.5,11.8c5.7,2.7,11.2,3.9,15.7,2.9l0,0
			c0.9-0.2,1.7-0.5,2.6-0.9c1-0.5,1.9-1.1,2.7-1.9c1-1,1.7-2.1,2.2-3.4c0.5-1.1,0.8-2.4,0.9-3.6C111.9,45.7,111.5,42.8,110.6,39.9"
			/>
		<path d="M105.4,31.1c-0.1-1.1-0.4-2.2-0.8-3.2l-0.4-0.9c-1.9-3.8-4.5-7.3-7.6-10.3c-2.4-2.4-5.1-4.6-8-6.4c-1-0.6-2-1.1-3-1.5
			c-1.3-0.6-2.8-0.9-4.2-0.9c-0.9,0-1.8,0.4-2.5,1c-0.4,0.4-0.7,0.9-0.8,1.4c-0.2,0.6-0.2,1.2-0.2,1.9c0.1,1.4,0.5,2.8,1.2,4.1
			c1.9,3.8,4.5,7.3,7.6,10.3h0.1c0.2,0.2,0.3,0.3,0.5,0.5c2.2,2.2,4.7,4.1,7.4,5.8c2.6,1.5,5.1,2.5,7.3,2.4l0,0c0.3,0,0.7-0.1,1-0.2
			c0.5-0.1,1-0.4,1.4-0.8C105.2,33.5,105.5,32.3,105.4,31.1 M95.4,18L95.4,18l-0.1,0.1l0,0L95.4,18z M100.1,28.8
			c-0.1,0.1-0.3,0.2-0.5,0.2c-1.4,0-2.7-0.4-3.8-1.1c-2.1-1.2-4.1-2.7-5.8-4.4c-2.2-2.1-3.9-4.6-5.1-7.4c-0.3-0.6-0.4-1.3-0.4-2
			c0-0.3,0.1-0.6,0.2-0.8c0.1-0.1,0.3-0.2,0.5-0.2c1.3,0,2.6,0.4,3.8,1.1c2.1,1.2,4.1,2.7,5.8,4.4l0.4-0.4v0.1l-0.4,0.4
			c2.2,2.1,3.9,4.6,5.1,7.4c0.3,0.6,0.4,1.3,0.4,2C100.4,28.3,100.3,28.6,100.1,28.8"/>
		<text transform="matrix(1 0 0 1 137.9112 79.902)" class="st0 st1">IndustryFusion</text>
	</g>
</g>
</svg>
